<svg xmlns="http://www.w3.org/2000/svg" viewBox="0 0 900 560">
  <rect width="900" height="560" rx="34" fill="#091426"/>
  <circle cx="140" cy="120" r="110" fill="#6af7d8" opacity=".14"/>
  <circle cx="760" cy="108" r="96" fill="#8d82ff" opacity=".16"/>
  <rect x="120" y="148" width="660" height="280" rx="30" fill="#0e1d38"/>
  <rect x="154" y="184" width="228" height="204" rx="22" fill="#15305a"/>
  <rect x="414" y="184" width="332" height="68" rx="18" fill="#13284b"/>
  <rect x="414" y="272" width="332" height="116" rx="18" fill="#10203a"/>
  <rect x="190" y="226" width="154" height="22" rx="11" fill="#eef4ff"/>
  <rect x="190" y="264" width="104" height="14" rx="7" fill="#9db4dc"/>
  <rect x="448" y="208" width="188" height="16" rx="8" fill="#6af7d8"/>
  <rect x="448" y="304" width="220" height="14" rx="7" fill="#ff67d6"/>
  <rect x="448" y="332" width="176" height="12" rx="6" fill="#9db4dc"/>
  <rect x="448" y="356" width="146" height="12" rx="6" fill="#9db4dc"/>
  <text x="116" y="500" fill="#eef4ff" font-family="Orbitron, Arial, sans-serif" font-size="42">CREATIVE HUB · CLIENT EXPERIENCE · PRODUCTION</text>
</svg>
