<svg xmlns="http://www.w3.org/2000/svg" viewBox="0 0 900 600">
  <defs>
    <linearGradient id="card" x1="0" y1="0" x2="1" y2="1">
      <stop offset="0%" stop-color="#6af7d8"/>
      <stop offset="100%" stop-color="#7f8cff"/>
    </linearGradient>
  </defs>
  <rect width="900" height="600" rx="36" fill="#091426"/>
  <rect x="98" y="112" width="704" height="376" rx="38" fill="url(#card)"/>
  <rect x="134" y="148" width="632" height="304" rx="28" fill="#0b1430" opacity=".88"/>
  <circle cx="220" cy="228" r="52" fill="#6af7d8"/>
  <rect x="304" y="190" width="248" height="20" rx="10" fill="#eef4ff"/>
  <rect x="304" y="228" width="156" height="14" rx="7" fill="#9db4dc"/>
  <rect x="304" y="318" width="186" height="14" rx="7" fill="#ff67d6"/>
  <rect x="304" y="352" width="124" height="14" rx="7" fill="#9db4dc"/>
  <rect x="602" y="174" width="116" height="116" rx="24" fill="#101f40"/>
  <path d="M632 214h56v12h-56zm0 28h56v12h-56zm0 28h36v12h-36z" fill="#6af7d8"/>
  <text x="142" y="530" fill="#eef4ff" font-family="Orbitron, Arial, sans-serif" font-size="50" font-weight="700">LEGEND MEMBER PASS</text>
</svg>
